<?xml version="1.0" encoding="UTF-8" standalone="no"?>
<!DOCTYPE svg PUBLIC "-//W3C//DTD SVG 1.1//EN"
 "http://www.w3.org/Graphics/SVG/1.1/DTD/svg11.dtd">
<!-- Generated by graphviz version 2.38.0 (20140413.2041)
 -->
<!-- Title: g Pages: 1 -->
<svg width="443pt" height="331pt"
 viewBox="0.00 0.00 443.50 331.22" xmlns="http://www.w3.org/2000/svg" xmlns:xlink="http://www.w3.org/1999/xlink">
<g id="graph0" class="graph" transform="scale(1 1) rotate(0) translate(3.866 327.09)">
<title>g</title>
<polygon fill="white" stroke="none" points="-3.866,4.13 -3.866,-327.09 439.63,-327.09 439.63,4.13 -3.866,4.13"/>
<!-- t=0\n10,20 -->
<g id="node1" class="node"><title>t=0\n10,20</title>
<ellipse fill="none" stroke="black" stroke-width="2" cx="194.13" cy="-296.09" rx="40.5" ry="27"/>
<text text-anchor="middle" x="194.13" y="-299.89" font-family="Times,serif" font-size="14.00">t=0</text>
<text text-anchor="middle" x="194.13" y="-284.89" font-family="Times,serif" font-size="14.00">10,20</text>
</g>
<!-- t=0\n10,21 -->
<g id="node2" class="node"><title>t=0\n10,21</title>
<ellipse fill="none" stroke="black" stroke-width="2" cx="144.13" cy="-206.35" rx="40.5" ry="27"/>
<text text-anchor="middle" x="144.13" y="-210.15" font-family="Times,serif" font-size="14.00">t=0</text>
<text text-anchor="middle" x="144.13" y="-195.15" font-family="Times,serif" font-size="14.00">10,21</text>
</g>
<!-- t=0\n10,20&#45;&gt;t=0\n10,21 -->
<g id="edge1" class="edge"><title>t=0\n10,20&#45;&gt;t=0\n10,21</title>
<path fill="none" stroke="black" stroke-width="2" d="M180.21,-270.65C174.9,-261.33 168.75,-250.55 163.06,-240.55"/>
<polygon fill="black" stroke="black" stroke-width="2" points="165.984,-238.613 157.99,-231.66 159.904,-242.081 165.984,-238.613"/>
</g>
<!-- t=0\n11,20 -->
<g id="node3" class="node"><title>t=0\n11,20</title>
<ellipse fill="none" stroke="black" stroke-width="2" cx="245.13" cy="-206.35" rx="40.5" ry="27"/>
<text text-anchor="middle" x="245.13" y="-210.15" font-family="Times,serif" font-size="14.00">t=0</text>
<text text-anchor="middle" x="245.13" y="-195.15" font-family="Times,serif" font-size="14.00">11,20</text>
</g>
<!-- t=0\n10,20&#45;&gt;t=0\n11,20 -->
<g id="edge2" class="edge"><title>t=0\n10,20&#45;&gt;t=0\n11,20</title>
<path fill="none" stroke="black" stroke-width="2" d="M208.34,-270.65C213.76,-261.33 220.02,-250.55 225.83,-240.55"/>
<polygon fill="black" stroke="black" stroke-width="2" points="228.998,-242.064 231,-231.66 222.947,-238.545 228.998,-242.064"/>
</g>
<!-- t=0\n10,21&#39; -->
<g id="node4" class="node"><title>t=0\n10,21&#39;</title>
<ellipse fill="none" stroke="black" stroke-width="2" cx="43.134" cy="-116.61" rx="43" ry="27"/>
<text text-anchor="middle" x="43.134" y="-120.41" font-family="Times,serif" font-size="14.00">t=0</text>
<text text-anchor="middle" x="43.134" y="-105.41" font-family="Times,serif" font-size="14.00">10,21&#39;</text>
</g>
<!-- t=0\n10,21&#45;&gt;t=0\n10,21&#39; -->
<g id="edge3" class="edge"><title>t=0\n10,21&#45;&gt;t=0\n10,21&#39;</title>
<path fill="none" stroke="black" stroke-width="2" d="M120.2,-184.56C106.81,-172.93 89.941,-158.27 75.4,-145.64"/>
<polygon fill="black" stroke="black" stroke-width="2" points="77.4427,-142.778 67.599,-138.86 72.8508,-148.062 77.4427,-142.778"/>
</g>
<!-- t=0\n11,21 -->
<g id="node5" class="node"><title>t=0\n11,21</title>
<ellipse fill="none" stroke="black" stroke-width="2" cx="144.13" cy="-116.61" rx="40.5" ry="27"/>
<text text-anchor="middle" x="144.13" y="-120.41" font-family="Times,serif" font-size="14.00">t=0</text>
<text text-anchor="middle" x="144.13" y="-105.41" font-family="Times,serif" font-size="14.00">11,21</text>
</g>
<!-- t=0\n10,21&#45;&gt;t=0\n11,21 -->
<g id="edge4" class="edge"><title>t=0\n10,21&#45;&gt;t=0\n11,21</title>
<path fill="none" stroke="black" stroke-width="2" d="M144.13,-179.03C144.13,-171.06 144.13,-162.17 144.13,-153.68"/>
<polygon fill="black" stroke="black" stroke-width="2" points="147.63,-153.61 144.13,-143.61 140.63,-153.61 147.63,-153.61"/>
</g>
<!-- t=0\n11,21&#39; -->
<g id="node6" class="node"><title>t=0\n11,21&#39;</title>
<ellipse fill="none" stroke="black" stroke-width="2" cx="245.13" cy="-116.61" rx="43" ry="27"/>
<text text-anchor="middle" x="245.13" y="-120.41" font-family="Times,serif" font-size="14.00">t=0</text>
<text text-anchor="middle" x="245.13" y="-105.41" font-family="Times,serif" font-size="14.00">11,21&#39;</text>
</g>
<!-- t=0\n11,20&#45;&gt;t=0\n11,21&#39; -->
<g id="edge5" class="edge"><title>t=0\n11,20&#45;&gt;t=0\n11,21&#39;</title>
<path fill="none" stroke="black" stroke-width="2" d="M245.13,-179.03C245.13,-171.06 245.13,-162.17 245.13,-153.68"/>
<polygon fill="black" stroke="black" stroke-width="2" points="248.63,-153.61 245.13,-143.61 241.63,-153.61 248.63,-153.61"/>
</g>
<!-- t=0\n12,20 -->
<g id="node7" class="node"><title>t=0\n12,20</title>
<ellipse fill="none" stroke="black" stroke-width="2" cx="346.13" cy="-116.61" rx="40.5" ry="27"/>
<text text-anchor="middle" x="346.13" y="-120.41" font-family="Times,serif" font-size="14.00">t=0</text>
<text text-anchor="middle" x="346.13" y="-105.41" font-family="Times,serif" font-size="14.00">12,20</text>
</g>
<!-- t=0\n11,20&#45;&gt;t=0\n12,20 -->
<g id="edge6" class="edge"><title>t=0\n11,20&#45;&gt;t=0\n12,20</title>
<path fill="none" stroke="black" stroke-width="2" d="M269.07,-184.56C282.56,-172.84 299.57,-158.06 314.19,-145.36"/>
<polygon fill="black" stroke="black" stroke-width="2" points="316.765,-147.76 322.02,-138.56 312.175,-142.474 316.765,-147.76"/>
</g>
<!-- t=0\n12,21 -->
<g id="node8" class="node"><title>t=0\n12,21</title>
<ellipse fill="none" stroke="black" stroke-width="2" cx="296.13" cy="-26.87" rx="40.5" ry="27"/>
<text text-anchor="middle" x="296.13" y="-30.67" font-family="Times,serif" font-size="14.00">t=0</text>
<text text-anchor="middle" x="296.13" y="-15.67" font-family="Times,serif" font-size="14.00">12,21</text>
</g>
<!-- t=0\n12,20&#45;&gt;t=0\n12,21 -->
<g id="edge7" class="edge"><title>t=0\n12,20&#45;&gt;t=0\n12,21</title>
<path fill="none" stroke="black" stroke-width="2" d="M332.21,-91.17C326.9,-81.852 320.75,-71.07 315.06,-61.074"/>
<polygon fill="black" stroke="black" stroke-width="2" points="317.983,-59.1343 309.99,-52.18 311.902,-62.6009 317.983,-59.1343"/>
</g>
<!-- t=1\n10,20 -->
<g id="node9" class="node"><title>t=1\n10,20</title>
<ellipse fill="none" stroke="black" stroke-width="2" cx="395.13" cy="-26.87" rx="40.5" ry="27"/>
<text text-anchor="middle" x="395.13" y="-30.67" font-family="Times,serif" font-size="14.00">t=1</text>
<text text-anchor="middle" x="395.13" y="-15.67" font-family="Times,serif" font-size="14.00">10,20</text>
</g>
<!-- t=0\n12,20&#45;&gt;t=1\n10,20 -->
<g id="edge8" class="edge"><title>t=0\n12,20&#45;&gt;t=1\n10,20</title>
<path fill="none" stroke="black" stroke-width="2" d="M359.78,-91.17C364.99,-81.852 371.01,-71.07 376.59,-61.074"/>
<polygon fill="black" stroke="black" stroke-width="2" points="379.737,-62.6169 381.56,-52.18 373.627,-59.2022 379.737,-62.6169"/>
</g>
</g>
</svg>
