<?xml version="1.0" encoding="UTF-8" standalone="no"?>
<!DOCTYPE svg PUBLIC "-//W3C//DTD SVG 1.1//EN"
 "http://www.w3.org/Graphics/SVG/1.1/DTD/svg11.dtd">
<!-- Generated by graphviz version 2.38.0 (20140413.2041)
 -->
<!-- Title: g Pages: 1 -->
<svg width="901pt" height="62pt"
 viewBox="0.00 0.00 901.10 62.00" xmlns="http://www.w3.org/2000/svg" xmlns:xlink="http://www.w3.org/1999/xlink">
<g id="graph0" class="graph" transform="scale(1 1) rotate(0) translate(4.195 57.87)">
<title>g</title>
<polygon fill="white" stroke="none" points="-4.195,4.13 -4.195,-57.87 896.9,-57.87 896.9,4.13 -4.195,4.13"/>
<!-- t=0\n10,20 -->
<g id="node1" class="node"><title>t=0\n10,20</title>
<ellipse fill="none" stroke="black" stroke-width="2" cx="40.305" cy="-26.87" rx="40.5" ry="27"/>
<text text-anchor="middle" x="40.305" y="-30.67" font-family="Times,serif" font-size="14.00">t=0</text>
<text text-anchor="middle" x="40.305" y="-15.67" font-family="Times,serif" font-size="14.00">10,20</text>
</g>
<!-- t=0\n10,21 -->
<g id="node2" class="node"><title>t=0\n10,21</title>
<ellipse fill="none" stroke="black" stroke-width="2" cx="156.92" cy="-26.87" rx="40.5" ry="27"/>
<text text-anchor="middle" x="156.92" y="-30.67" font-family="Times,serif" font-size="14.00">t=0</text>
<text text-anchor="middle" x="156.92" y="-15.67" font-family="Times,serif" font-size="14.00">10,21</text>
</g>
<!-- t=0\n10,20&#45;&gt;t=0\n10,21 -->
<g id="edge1" class="edge"><title>t=0\n10,20&#45;&gt;t=0\n10,21</title>
<path fill="none" stroke="black" stroke-width="2" d="M80.747,-26.87C88.941,-26.87 97.677,-26.87 106.19,-26.87"/>
<polygon fill="black" stroke="black" stroke-width="2" points="106.4,-30.3701 116.4,-26.87 106.4,-23.3701 106.4,-30.3701"/>
</g>
<!-- t=0\n10,21&#39; -->
<g id="node3" class="node"><title>t=0\n10,21&#39;</title>
<ellipse fill="none" stroke="black" stroke-width="2" cx="276.35" cy="-26.87" rx="43" ry="27"/>
<text text-anchor="middle" x="276.35" y="-30.67" font-family="Times,serif" font-size="14.00">t=0</text>
<text text-anchor="middle" x="276.35" y="-15.67" font-family="Times,serif" font-size="14.00">10,21&#39;</text>
</g>
<!-- t=0\n10,21&#45;&gt;t=0\n10,21&#39; -->
<g id="edge2" class="edge"><title>t=0\n10,21&#45;&gt;t=0\n10,21&#39;</title>
<path fill="none" stroke="black" stroke-width="2" d="M197.35,-26.87C205.5,-26.87 214.2,-26.87 222.73,-26.87"/>
<polygon fill="black" stroke="black" stroke-width="2" points="223.01,-30.3701 233.01,-26.87 223.01,-23.3701 223.01,-30.3701"/>
</g>
<!-- t=0\n11,21 -->
<g id="node4" class="node"><title>t=0\n11,21</title>
<ellipse fill="none" stroke="black" stroke-width="2" cx="395.79" cy="-26.87" rx="40.5" ry="27"/>
<text text-anchor="middle" x="395.79" y="-30.67" font-family="Times,serif" font-size="14.00">t=0</text>
<text text-anchor="middle" x="395.79" y="-15.67" font-family="Times,serif" font-size="14.00">11,21</text>
</g>
<!-- t=0\n10,21&#39;&#45;&gt;t=0\n11,21 -->
<g id="edge3" class="edge"><title>t=0\n10,21&#39;&#45;&gt;t=0\n11,21</title>
<path fill="none" stroke="black" stroke-width="2" d="M319.75,-26.87C327.97,-26.87 336.66,-26.87 345.09,-26.87"/>
<polygon fill="black" stroke="black" stroke-width="2" points="345.2,-30.3701 355.2,-26.87 345.2,-23.3701 345.2,-30.3701"/>
</g>
<!-- t=0\n11,21&#39; -->
<g id="node5" class="node"><title>t=0\n11,21&#39;</title>
<ellipse fill="none" stroke="black" stroke-width="2" cx="515.23" cy="-26.87" rx="43" ry="27"/>
<text text-anchor="middle" x="515.23" y="-30.67" font-family="Times,serif" font-size="14.00">t=0</text>
<text text-anchor="middle" x="515.23" y="-15.67" font-family="Times,serif" font-size="14.00">11,21&#39;</text>
</g>
<!-- t=0\n11,21&#45;&gt;t=0\n11,21&#39; -->
<g id="edge4" class="edge"><title>t=0\n11,21&#45;&gt;t=0\n11,21&#39;</title>
<path fill="none" stroke="black" stroke-width="2" d="M436.22,-26.87C444.37,-26.87 453.08,-26.87 461.61,-26.87"/>
<polygon fill="black" stroke="black" stroke-width="2" points="461.88,-30.3701 471.88,-26.87 461.88,-23.3701 461.88,-30.3701"/>
</g>
<!-- t=0\n12,21 -->
<g id="node6" class="node"><title>t=0\n12,21</title>
<ellipse fill="none" stroke="black" stroke-width="2" cx="634.67" cy="-26.87" rx="40.5" ry="27"/>
<text text-anchor="middle" x="634.67" y="-30.67" font-family="Times,serif" font-size="14.00">t=0</text>
<text text-anchor="middle" x="634.67" y="-15.67" font-family="Times,serif" font-size="14.00">12,21</text>
</g>
<!-- t=0\n11,21&#39;&#45;&gt;t=0\n12,21 -->
<g id="edge5" class="edge"><title>t=0\n11,21&#39;&#45;&gt;t=0\n12,21</title>
<path fill="none" stroke="black" stroke-width="2" d="M558.63,-26.87C566.85,-26.87 575.53,-26.87 583.96,-26.87"/>
<polygon fill="black" stroke="black" stroke-width="2" points="584.07,-30.3701 594.07,-26.87 584.07,-23.3701 584.07,-30.3701"/>
</g>
<!-- t=0\n10,21&#39;&#39; -->
<g id="node7" class="node"><title>t=0\n10,21&#39;&#39;</title>
<ellipse fill="none" stroke="black" stroke-width="2" cx="756.94" cy="-26.87" rx="46" ry="27"/>
<text text-anchor="middle" x="756.94" y="-30.67" font-family="Times,serif" font-size="14.00">t=0</text>
<text text-anchor="middle" x="756.94" y="-15.67" font-family="Times,serif" font-size="14.00">10,21&#39;&#39;</text>
</g>
<!-- t=0\n12,21&#45;&gt;t=0\n10,21&#39;&#39; -->
<g id="edge6" class="edge"><title>t=0\n12,21&#45;&gt;t=0\n10,21&#39;&#39;</title>
<path fill="none" stroke="black" stroke-width="2" d="M675.05,-26.87C683.22,-26.87 691.98,-26.87 700.6,-26.87"/>
<polygon fill="black" stroke="black" stroke-width="2" points="700.62,-30.3701 710.62,-26.87 700.62,-23.3701 700.62,-30.3701"/>
</g>
<!-- ... -->
<g id="node8" class="node"><title>...</title>
<ellipse fill="none" stroke="black" stroke-width="2" cx="865.9" cy="-26.87" rx="27" ry="18"/>
<text text-anchor="middle" x="865.9" y="-23.17" font-family="Times,serif" font-size="14.00">...</text>
</g>
<!-- t=0\n10,21&#39;&#39;&#45;&gt;... -->
<g id="edge7" class="edge"><title>t=0\n10,21&#39;&#39;&#45;&gt;...</title>
<path fill="none" stroke="black" stroke-width="2" d="M802.99,-26.87C811.58,-26.87 820.47,-26.87 828.74,-26.87"/>
<polygon fill="black" stroke="black" stroke-width="2" points="828.81,-30.3701 838.81,-26.87 828.81,-23.3701 828.81,-30.3701"/>
</g>
</g>
</svg>
