<?xml version="1.0" encoding="UTF-8" standalone="no"?>
<!DOCTYPE svg PUBLIC "-//W3C//DTD SVG 1.1//EN"
 "http://www.w3.org/Graphics/SVG/1.1/DTD/svg11.dtd">
<!-- Generated by graphviz version 2.38.0 (20140413.2041)
 -->
<!-- Title: g Pages: 1 -->
<svg width="206pt" height="191pt"
 viewBox="0.00 0.00 206.00 190.64" xmlns="http://www.w3.org/2000/svg" xmlns:xlink="http://www.w3.org/1999/xlink">
<g id="graph0" class="graph" transform="scale(1 1) rotate(0) translate(4 186.64)">
<title>g</title>
<polygon fill="white" stroke="none" points="-4,4 -4,-186.64 202,-186.64 202,4 -4,4"/>
<!-- W -->
<g id="node1" class="node"><title>W</title>
<ellipse fill="white" stroke="black" stroke-width="2" cx="27" cy="-162" rx="27" ry="18"/>
<text text-anchor="middle" x="27" y="-158.3" font-family="Times,serif" font-size="14.00" fill="white">W</text>
</g>
<!-- B -->
<g id="node2" class="node"><title>B</title>
<ellipse fill="black" stroke="black" stroke-width="2" cx="171" cy="-162" rx="27" ry="18"/>
<text text-anchor="middle" x="171" y="-158.3" font-family="Times,serif" font-size="14.00">B</text>
</g>
<!-- W&#45;&gt;B -->
<g id="edge1" class="edge"><title>W&#45;&gt;B</title>
<path fill="none" stroke="black" stroke-width="2" d="M53.077,-167.34C76.015,-169 109.62,-169.19 135.1,-167.93"/>
<polygon fill="black" stroke="black" stroke-width="2" points="135.347,-171.422 145.12,-167.33 134.929,-164.434 135.347,-171.422"/>
<text text-anchor="middle" x="79.588" y="-171.44" font-family="Times,serif" font-size="14.00">lock</text>
</g>
<!-- R -->
<g id="node3" class="node"><title>R</title>
<ellipse fill="red" stroke="black" stroke-width="2" cx="99" cy="-18" rx="27" ry="18"/>
<text text-anchor="middle" x="99" y="-14.3" font-family="Times,serif" font-size="14.00" fill="red">R</text>
</g>
<!-- W&#45;&gt;R -->
<g id="edge2" class="edge"><title>W&#45;&gt;R</title>
<path fill="none" stroke="black" stroke-width="2" d="M35.542,-144.92C47.925,-120.15 70.978,-74.043 85.627,-44.747"/>
<polygon fill="black" stroke="black" stroke-width="2" points="88.9032,-46.0207 90.244,-35.511 82.642,-42.8907 88.9032,-46.0207"/>
<text text-anchor="middle" x="37.084" y="-98.63" font-family="Times,serif" font-size="14.00">unlock</text>
</g>
<!-- B&#45;&gt;W -->
<g id="edge3" class="edge"><title>B&#45;&gt;W</title>
<path fill="none" stroke="black" stroke-width="2" d="M144.92,-156.66C121.99,-155 88.376,-154.81 62.901,-156.07"/>
<polygon fill="black" stroke="black" stroke-width="2" points="62.6558,-152.578 52.883,-156.67 63.0744,-159.566 62.6558,-152.578"/>
<text text-anchor="middle" x="80.412" y="-145.16" font-family="Times,serif" font-size="14.00">unlock</text>
</g>
<!-- B&#45;&gt;R -->
<g id="edge4" class="edge"><title>B&#45;&gt;R</title>
<path fill="none" stroke="black" stroke-width="2" d="M162.46,-144.92C150.08,-120.15 127.02,-74.043 112.37,-44.747"/>
<polygon fill="black" stroke="black" stroke-width="2" points="115.358,-42.8953 107.76,-35.511 109.094,-46.0215 115.358,-42.8953"/>
<text text-anchor="middle" x="122.92" y="-98.63" font-family="Times,serif" font-size="14.00">lock</text>
</g>
</g>
</svg>
