<?xml version="1.0" encoding="UTF-8" standalone="no"?>
<!DOCTYPE svg PUBLIC "-//W3C//DTD SVG 1.1//EN"
 "http://www.w3.org/Graphics/SVG/1.1/DTD/svg11.dtd">
<!-- Generated by graphviz version 2.38.0 (20140413.2041)
 -->
<!-- Title: g Pages: 1 -->
<svg width="809pt" height="422pt"
 viewBox="0.00 0.00 808.71 422.00" xmlns="http://www.w3.org/2000/svg" xmlns:xlink="http://www.w3.org/1999/xlink">
<g id="graph0" class="graph" transform="scale(1 1) rotate(0) translate(4.427 418)">
<title>g</title>
<polygon fill="white" stroke="none" points="-4.427,4 -4.427,-418 804.28,-418 804.28,4 -4.427,4"/>
<!-- t=0,\n10, 20 -->
<g id="node1" class="node"><title>t=0,\n10, 20</title>
<ellipse fill="none" stroke="black" stroke-width="2" cx="211" cy="-387" rx="44" ry="27"/>
<text text-anchor="middle" x="211" y="-390.8" font-family="Times,serif" font-size="14.00">t=0,</text>
<text text-anchor="middle" x="211" y="-375.8" font-family="Times,serif" font-size="14.00">10, 20</text>
</g>
<!-- t=0,\n10, 21 -->
<g id="node2" class="node"><title>t=0,\n10, 21</title>
<ellipse fill="none" stroke="black" stroke-width="2" cx="43.573" cy="-319.51" rx="44" ry="27"/>
<text text-anchor="middle" x="43.573" y="-323.31" font-family="Times,serif" font-size="14.00">t=0,</text>
<text text-anchor="middle" x="43.573" y="-308.31" font-family="Times,serif" font-size="14.00">10, 21</text>
</g>
<!-- t=0,\n10, 20&#45;&gt;t=0,\n10, 21 -->
<g id="edge1" class="edge"><title>t=0,\n10, 20&#45;&gt;t=0,\n10, 21</title>
<path fill="none" stroke="black" stroke-width="2" d="M174.26,-372.19C149.4,-362.17 116.36,-348.85 89.726,-338.12"/>
<polygon fill="black" stroke="black" stroke-width="2" points="90.8133,-334.785 80.23,-334.29 88.1949,-341.276 90.8133,-334.785"/>
</g>
<!-- t=0,\n11, 20 -->
<g id="node3" class="node"><title>t=0,\n11, 20</title>
<ellipse fill="none" stroke="black" stroke-width="2" cx="342.94" cy="-163.82" rx="44" ry="27"/>
<text text-anchor="middle" x="342.94" y="-167.62" font-family="Times,serif" font-size="14.00">t=0,</text>
<text text-anchor="middle" x="342.94" y="-152.62" font-family="Times,serif" font-size="14.00">11, 20</text>
</g>
<!-- t=0,\n10, 20&#45;&gt;t=0,\n11, 20 -->
<g id="edge2" class="edge"><title>t=0,\n10, 20&#45;&gt;t=0,\n11, 20</title>
<path fill="none" stroke="black" stroke-width="2" d="M226.14,-361.4C249.95,-321.12 296.17,-242.93 322.78,-197.93"/>
<polygon fill="black" stroke="black" stroke-width="2" points="325.911,-199.511 327.98,-189.12 319.883,-195.953 325.911,-199.511"/>
</g>
<!-- t=0,\n10, 21&#45;&gt;t=0,\n10, 21 -->
<g id="edge3" class="edge"><title>t=0,\n10, 21&#45;&gt;t=0,\n10, 21</title>
<path fill="none" stroke="black" stroke-width="2" d="M86.061,-326.19C97.094,-325.78 105.41,-323.55 105.41,-319.51 105.41,-316.86 101.83,-314.99 96.249,-313.9"/>
<polygon fill="black" stroke="black" stroke-width="2" points="96.3719,-310.394 86.061,-312.83 95.6407,-317.355 96.3719,-310.394"/>
</g>
<!-- t=0,\n11, 21 -->
<g id="node4" class="node"><title>t=0,\n11, 21</title>
<ellipse fill="none" stroke="black" stroke-width="2" cx="137.5" cy="-167.41" rx="44" ry="27"/>
<text text-anchor="middle" x="137.5" y="-171.21" font-family="Times,serif" font-size="14.00">t=0,</text>
<text text-anchor="middle" x="137.5" y="-156.21" font-family="Times,serif" font-size="14.00">11, 21</text>
</g>
<!-- t=0,\n10, 21&#45;&gt;t=0,\n11, 21 -->
<g id="edge4" class="edge"><title>t=0,\n10, 21&#45;&gt;t=0,\n11, 21</title>
<path fill="none" stroke="black" stroke-width="2" d="M59.294,-294.05C74.986,-268.64 99.195,-229.44 116.52,-201.38"/>
<polygon fill="black" stroke="black" stroke-width="2" points="119.604,-203.047 121.88,-192.7 113.648,-199.37 119.604,-203.047"/>
</g>
<!-- t=0,\n11, 20&#45;&gt;t=0,\n11, 21 -->
<g id="edge5" class="edge"><title>t=0,\n11, 20&#45;&gt;t=0,\n11, 21</title>
<path fill="none" stroke="black" stroke-width="2" d="M298.87,-164.59C267.45,-165.14 225.04,-165.88 191.57,-166.46"/>
<polygon fill="black" stroke="black" stroke-width="2" points="191.436,-162.962 181.5,-166.64 191.561,-169.961 191.436,-162.962"/>
</g>
<!-- t=0,\n12, 20 -->
<g id="node5" class="node"><title>t=0,\n12, 20</title>
<ellipse fill="none" stroke="black" stroke-width="2" cx="339.71" cy="-241.61" rx="44" ry="27"/>
<text text-anchor="middle" x="339.71" y="-245.41" font-family="Times,serif" font-size="14.00">t=0,</text>
<text text-anchor="middle" x="339.71" y="-230.41" font-family="Times,serif" font-size="14.00">12, 20</text>
</g>
<!-- t=0,\n11, 20&#45;&gt;t=0,\n12, 20 -->
<g id="edge6" class="edge"><title>t=0,\n11, 20&#45;&gt;t=0,\n12, 20</title>
<path fill="none" stroke="black" stroke-width="2" d="M341.81,-191.03C341.63,-195.31 341.45,-199.81 341.26,-204.28"/>
<polygon fill="black" stroke="black" stroke-width="2" points="337.751,-204.412 340.83,-214.55 344.745,-204.705 337.751,-204.412"/>
</g>
<!-- t=0,\n11, 21&#45;&gt;t=0,\n11, 21 -->
<g id="edge7" class="edge"><title>t=0,\n11, 21&#45;&gt;t=0,\n11, 21</title>
<path fill="none" stroke="black" stroke-width="2" d="M179.99,-174.09C191.02,-173.68 199.34,-171.45 199.34,-167.41 199.34,-164.76 195.76,-162.88 190.17,-161.8"/>
<polygon fill="black" stroke="black" stroke-width="2" points="190.301,-158.295 179.99,-160.73 189.569,-165.256 190.301,-158.295"/>
</g>
<!-- t=0,\n12, 21 -->
<g id="node6" class="node"><title>t=0,\n12, 21</title>
<ellipse fill="none" stroke="black" stroke-width="2" cx="211" cy="-27" rx="44" ry="27"/>
<text text-anchor="middle" x="211" y="-30.8" font-family="Times,serif" font-size="14.00">t=0,</text>
<text text-anchor="middle" x="211" y="-15.8" font-family="Times,serif" font-size="14.00">12, 21</text>
</g>
<!-- t=0,\n11, 21&#45;&gt;t=0,\n12, 21 -->
<g id="edge8" class="edge"><title>t=0,\n11, 21&#45;&gt;t=0,\n12, 21</title>
<path fill="none" stroke="black" stroke-width="2" d="M150.98,-141.66C162.74,-119.19 179.9,-86.411 192.86,-61.649"/>
<polygon fill="black" stroke="black" stroke-width="2" points="196.065,-63.0731 197.6,-52.59 189.863,-59.8278 196.065,-63.0731"/>
</g>
<!-- t=0,\n12, 20&#45;&gt;t=0,\n12, 21 -->
<g id="edge10" class="edge"><title>t=0,\n12, 20&#45;&gt;t=0,\n12, 21</title>
<path fill="none" stroke="black" stroke-width="2" d="M324.44,-216.15C301.31,-177.59 257.37,-104.31 231.48,-61.156"/>
<polygon fill="black" stroke="black" stroke-width="2" points="234.392,-59.2069 226.25,-52.428 228.388,-62.8049 234.392,-59.2069"/>
</g>
<!-- t=1,\n10, 20 -->
<g id="node7" class="node"><title>t=1,\n10, 20</title>
<ellipse fill="none" stroke="black" stroke-width="2" cx="571" cy="-387" rx="44" ry="27"/>
<text text-anchor="middle" x="571" y="-390.8" font-family="Times,serif" font-size="14.00">t=1,</text>
<text text-anchor="middle" x="571" y="-375.8" font-family="Times,serif" font-size="14.00">10, 20</text>
</g>
<!-- t=0,\n12, 20&#45;&gt;t=1,\n10, 20 -->
<g id="edge9" class="edge"><title>t=0,\n12, 20&#45;&gt;t=1,\n10, 20</title>
<path fill="none" stroke="black" stroke-width="2" d="M370.42,-260.91C411.9,-286.99 485.85,-333.47 531.44,-362.13"/>
<polygon fill="black" stroke="black" stroke-width="2" points="529.831,-365.252 540.16,-367.61 533.555,-359.326 529.831,-365.252"/>
</g>
<!-- t=0,\n12, 21&#45;&gt;t=0,\n12, 21 -->
<g id="edge22" class="edge"><title>t=0,\n12, 21&#45;&gt;t=0,\n12, 21</title>
<path fill="none" stroke="black" stroke-width="2" d="M253.49,-33.68C264.52,-33.27 272.84,-31.043 272.84,-27 272.84,-24.347 269.26,-22.476 263.68,-21.387"/>
<polygon fill="black" stroke="black" stroke-width="2" points="263.8,-17.8805 253.49,-20.32 263.071,-24.8425 263.8,-17.8805"/>
</g>
<!-- t=1,\n10, 21 -->
<g id="node8" class="node"><title>t=1,\n10, 21</title>
<ellipse fill="none" stroke="black" stroke-width="2" cx="445.85" cy="-166.6" rx="44" ry="27"/>
<text text-anchor="middle" x="445.85" y="-170.4" font-family="Times,serif" font-size="14.00">t=1,</text>
<text text-anchor="middle" x="445.85" y="-155.4" font-family="Times,serif" font-size="14.00">10, 21</text>
</g>
<!-- t=0,\n12, 21&#45;&gt;t=1,\n10, 21 -->
<g id="edge21" class="edge"><title>t=0,\n12, 21&#45;&gt;t=1,\n10, 21</title>
<path fill="none" stroke="black" stroke-width="2" d="M242.67,-45.827C284.81,-70.876 359.35,-115.18 405.48,-142.6"/>
<polygon fill="black" stroke="black" stroke-width="2" points="403.926,-145.748 414.31,-147.85 407.503,-139.731 403.926,-145.748"/>
</g>
<!-- t=1,\n10, 20&#45;&gt;t=1,\n10, 21 -->
<g id="edge11" class="edge"><title>t=1,\n10, 20&#45;&gt;t=1,\n10, 21</title>
<path fill="none" stroke="black" stroke-width="2" d="M556.4,-361.29C533.89,-321.64 490.67,-245.52 465.45,-201.12"/>
<polygon fill="black" stroke="black" stroke-width="2" points="468.339,-199.12 460.36,-192.15 462.251,-202.575 468.339,-199.12"/>
</g>
<!-- t=1,\n11, 20 -->
<g id="node9" class="node"><title>t=1,\n11, 20</title>
<ellipse fill="none" stroke="black" stroke-width="2" cx="738.44" cy="-319.17" rx="44" ry="27"/>
<text text-anchor="middle" x="738.44" y="-322.97" font-family="Times,serif" font-size="14.00">t=1,</text>
<text text-anchor="middle" x="738.44" y="-307.97" font-family="Times,serif" font-size="14.00">11, 20</text>
</g>
<!-- t=1,\n10, 20&#45;&gt;t=1,\n11, 20 -->
<g id="edge12" class="edge"><title>t=1,\n10, 20&#45;&gt;t=1,\n11, 20</title>
<path fill="none" stroke="black" stroke-width="2" d="M607.75,-372.12C632.61,-362.04 665.65,-348.66 692.28,-337.87"/>
<polygon fill="black" stroke="black" stroke-width="2" points="693.827,-341.02 701.78,-334.02 691.198,-334.532 693.827,-341.02"/>
</g>
<!-- t=1,\n10, 22 -->
<g id="node10" class="node"><title>t=1,\n10, 22</title>
<ellipse fill="none" stroke="black" stroke-width="2" cx="439.34" cy="-244.1" rx="44" ry="27"/>
<text text-anchor="middle" x="439.34" y="-247.9" font-family="Times,serif" font-size="14.00">t=1,</text>
<text text-anchor="middle" x="439.34" y="-232.9" font-family="Times,serif" font-size="14.00">10, 22</text>
</g>
<!-- t=1,\n10, 21&#45;&gt;t=1,\n10, 22 -->
<g id="edge13" class="edge"><title>t=1,\n10, 21&#45;&gt;t=1,\n10, 22</title>
<path fill="none" stroke="black" stroke-width="2" d="M443.58,-193.71C443.22,-197.98 442.84,-202.46 442.47,-206.91"/>
<polygon fill="black" stroke="black" stroke-width="2" points="438.96,-206.882 441.61,-217.14 445.935,-207.468 438.96,-206.882"/>
</g>
<!-- t=1,\n11, 21 -->
<g id="node11" class="node"><title>t=1,\n11, 21</title>
<ellipse fill="none" stroke="black" stroke-width="2" cx="644.02" cy="-166.86" rx="44" ry="27"/>
<text text-anchor="middle" x="644.02" y="-170.66" font-family="Times,serif" font-size="14.00">t=1,</text>
<text text-anchor="middle" x="644.02" y="-155.66" font-family="Times,serif" font-size="14.00">11, 21</text>
</g>
<!-- t=1,\n10, 21&#45;&gt;t=1,\n11, 21 -->
<g id="edge14" class="edge"><title>t=1,\n10, 21&#45;&gt;t=1,\n11, 21</title>
<path fill="none" stroke="black" stroke-width="2" d="M489.83,-166.66C519.34,-166.7 558.4,-166.75 589.82,-166.79"/>
<polygon fill="black" stroke="black" stroke-width="2" points="590.157,-170.29 600.16,-166.8 590.163,-163.29 590.157,-170.29"/>
</g>
<!-- t=1,\n11, 20&#45;&gt;t=1,\n11, 20 -->
<g id="edge15" class="edge"><title>t=1,\n11, 20&#45;&gt;t=1,\n11, 20</title>
<path fill="none" stroke="black" stroke-width="2" d="M780.93,-325.85C791.96,-325.44 800.28,-323.22 800.28,-319.17 800.28,-316.52 796.7,-314.65 791.12,-313.56"/>
<polygon fill="black" stroke="black" stroke-width="2" points="791.241,-310.054 780.93,-312.49 790.51,-317.015 791.241,-310.054"/>
</g>
<!-- t=1,\n11, 20&#45;&gt;t=1,\n11, 21 -->
<g id="edge16" class="edge"><title>t=1,\n11, 20&#45;&gt;t=1,\n11, 21</title>
<path fill="none" stroke="black" stroke-width="2" d="M722.85,-294.02C707.06,-268.56 682.55,-229.01 665.05,-200.78"/>
<polygon fill="black" stroke="black" stroke-width="2" points="667.878,-198.7 659.63,-192.05 661.931,-202.392 667.878,-198.7"/>
</g>
<!-- t=1,\n10, 22&#45;&gt;t=0,\n10, 20 -->
<g id="edge17" class="edge"><title>t=1,\n10, 22&#45;&gt;t=0,\n10, 20</title>
<path fill="none" stroke="black" stroke-width="2" d="M408.54,-263.37C367.69,-288.94 295.51,-334.11 250.63,-362.2"/>
<polygon fill="black" stroke="black" stroke-width="2" points="248.657,-359.306 242.04,-367.58 252.373,-365.238 248.657,-359.306"/>
</g>
<!-- t=1,\n11, 22 -->
<g id="node12" class="node"><title>t=1,\n11, 22</title>
<ellipse fill="none" stroke="black" stroke-width="2" cx="571" cy="-27" rx="44" ry="27"/>
<text text-anchor="middle" x="571" y="-30.8" font-family="Times,serif" font-size="14.00">t=1,</text>
<text text-anchor="middle" x="571" y="-15.8" font-family="Times,serif" font-size="14.00">11, 22</text>
</g>
<!-- t=1,\n10, 22&#45;&gt;t=1,\n11, 22 -->
<g id="edge18" class="edge"><title>t=1,\n10, 22&#45;&gt;t=1,\n11, 22</title>
<path fill="none" stroke="black" stroke-width="2" d="M454.7,-218.77C478.37,-179.74 523.8,-104.83 550.33,-61.08"/>
<polygon fill="black" stroke="black" stroke-width="2" points="553.339,-62.8687 555.53,-52.503 547.353,-59.2397 553.339,-62.8687"/>
</g>
<!-- t=1,\n11, 21&#45;&gt;t=1,\n11, 21 -->
<g id="edge19" class="edge"><title>t=1,\n11, 21&#45;&gt;t=1,\n11, 21</title>
<path fill="none" stroke="black" stroke-width="2" d="M686.51,-173.54C697.54,-173.13 705.86,-170.9 705.86,-166.86 705.86,-164.21 702.28,-162.34 696.69,-161.25"/>
<polygon fill="black" stroke="black" stroke-width="2" points="696.821,-157.745 686.51,-160.18 696.089,-164.706 696.821,-157.745"/>
</g>
<!-- t=1,\n11, 21&#45;&gt;t=1,\n11, 22 -->
<g id="edge20" class="edge"><title>t=1,\n11, 21&#45;&gt;t=1,\n11, 22</title>
<path fill="none" stroke="black" stroke-width="2" d="M630.63,-141.21C619.02,-118.97 602.11,-86.587 589.26,-61.978"/>
<polygon fill="black" stroke="black" stroke-width="2" points="592.283,-60.2061 584.55,-52.964 586.079,-63.4479 592.283,-60.2061"/>
</g>
<!-- t=1,\n11, 22&#45;&gt;t=0,\n11, 20 -->
<g id="edge23" class="edge"><title>t=1,\n11, 22&#45;&gt;t=0,\n11, 20</title>
<path fill="none" stroke="black" stroke-width="2" d="M539.29,-46.024C498.53,-70.479 427.71,-112.96 383.19,-139.67"/>
<polygon fill="black" stroke="black" stroke-width="2" points="381.151,-136.812 374.38,-144.96 384.755,-142.813 381.151,-136.812"/>
</g>
<!-- t=1,\n11, 22&#45;&gt;t=1,\n11, 22 -->
<g id="edge24" class="edge"><title>t=1,\n11, 22&#45;&gt;t=1,\n11, 22</title>
<path fill="none" stroke="black" stroke-width="2" d="M613.49,-33.68C624.52,-33.27 632.84,-31.043 632.84,-27 632.84,-24.347 629.26,-22.476 623.68,-21.387"/>
<polygon fill="black" stroke="black" stroke-width="2" points="623.8,-17.8805 613.49,-20.32 623.071,-24.8425 623.8,-17.8805"/>
</g>
</g>
</svg>
